<svg xmlns="http://www.w3.org/2000/svg" width="500" height="500" viewBox="0 0 500 500" version="1.1">
    <path
        d="M 182.662 147.750 C 176.267 157.897, 87 304.222, 87 304.557 C 87 304.770, 100.898 305.069, 117.883 305.222 L 148.767 305.500 182.632 250.087 L 216.496 194.674 314.498 195.093 C 368.399 195.324, 398.842 195.391, 382.149 195.242 C 357.873 195.025, 351.896 194.713, 352.292 193.682 C 352.564 192.973, 358.834 182.517, 366.225 170.446 C 373.617 158.376, 380.206 147.488, 380.867 146.250 L 382.070 144 283.548 144 L 185.025 144 182.662 147.750"
        stroke="none" fill="#2edb84" fillRule="evenodd" />
    <path
        d="M 195.966 228.250 C 184.798 246.537, 163.445 281.526, 148.515 306.003 C 133.585 330.480, 120.560 351.742, 119.570 353.253 L 117.770 356 216.135 355.980 L 314.500 355.960 329.220 331.730 C 337.316 318.403, 359.211 282.525, 377.874 252 L 411.808 196.500 376.654 195.884 C 357.319 195.546, 313.323 195.208, 278.885 195.134 L 216.271 195 195.966 228.250"
        stroke="none" fill="#042c53" fillRule="evenodd" />
</svg>