<?xml version="1.0" encoding="UTF-8"?><svg width="24" height="24" viewBox="0 0 24 24" fill="none" xmlns="http://www.w3.org/2000/svg"><path fill-rule="evenodd" clip-rule="evenodd" d="M20.4054 3.5875C18.1607 1.3425 15.1714 0.0938 11.9946 0.0938C5.4375 0.0938 0.101786 5.42951 0.101786 11.9866C0.101786 14.1 0.648214 16.1588 1.69286 17.9813L0 24L6.15 22.3425C7.90714 23.3013 9.92679 23.8025 11.9893 23.8025H11.9946C18.5464 23.8025 24 18.4668 24 11.9098C24 8.73294 22.65 5.8325 20.4054 3.5875ZM11.9946 21.8205C10.2 21.8205 8.44286 21.3405 6.90536 20.4363L6.54643 20.2238L2.83393 21.2055L3.83571 17.5838L3.60214 17.2088C2.61429 15.6105 2.08929 13.8263 2.08929 11.9866C2.08929 6.52237 6.53036 2.08116 12 2.08116C14.6571 2.08116 17.1429 3.12652 19.0179 5.00723C20.8929 6.88795 21.9964 9.37366 21.9911 11.9098C21.9911 17.3794 17.4589 21.8205 11.9946 21.8205ZM17.4161 14.4913C17.1214 14.3438 15.6589 13.6238 15.3857 13.5213C15.1125 13.4188 14.9143 13.3675 14.7161 13.6625C14.5179 13.9575 13.9446 14.625 13.7679 14.8238C13.5911 15.0225 13.4143 15.0481 13.1196 14.9006C12.825 14.7531 11.8607 14.4338 10.725 13.4188C9.84643 12.6225 9.24643 11.6363 9.06964 11.3413C8.89286 11.0463 9.05357 10.8825 9.20893 10.7288C9.34821 10.5919 9.51964 10.3675 9.67179 10.1906C9.82393 10.0138 9.875 9.88723 9.97679 9.68848C10.0786 9.48973 10.0304 9.31294 9.95893 9.16544C9.88929 9.01794 9.28929 7.55366 9.04286 6.96366C8.80179 6.39008 8.55536 6.47366 8.36786 6.46294C8.19107 6.45223 7.99286 6.45223 7.79464 6.45223C7.59643 6.45223 7.27143 6.52187 6.99821 6.81687C6.725 7.11187 5.95714 7.83187 5.95714 9.29616C5.95714 10.7604 7.02321 12.1713 7.175 12.37C7.32679 12.5688 9.24107 15.5281 12.1821 16.8188C12.9071 17.1351 13.4732 17.3231 13.9125 17.4651C14.6357 17.6981 15.2946 17.6638 15.8196 17.5931C16.4036 17.5138 17.5643 16.8763 17.8107 16.1819C18.0571 15.4875 18.0571 14.8975 17.9875 14.8238C17.9179 14.75 17.7107 14.7069 17.4161 14.4913Z" fill="currentColor"/></svg>
