<svg xmlns="http://www.w3.org/2000/svg" version="1.1" xmlns:xlink="http://www.w3.org/1999/xlink"
    xmlns:svgjs="http://svgjs.dev/svgjs" viewBox="0 0 800 800" opacity="0.23" width="800" height="800">
    <g stroke-width="1" stroke="#2bde80ff" fill="none">
        <rect width="114.28571428571429" height="114.28571428571429" x="0" y="0" opacity="0.15"></rect>
        <circle r="4.934210526315789" cx="0" cy="0" fill="#2bde80ff" stroke="none"></circle>
        <rect width="114.28571428571429" height="114.28571428571429" x="114.28571428571429" y="0" opacity="0.15"></rect>
        <circle r="4.934210526315789" cx="114.28571428571429" cy="0" fill="#2bde80ff" stroke="none"></circle>
        <rect width="114.28571428571429" height="114.28571428571429" x="228.57142857142858" y="0" opacity="0.15"></rect>
        <circle r="4.934210526315789" cx="228.57142857142858" cy="0" fill="#2bde80ff" stroke="none"></circle>
        <rect width="114.28571428571429" height="114.28571428571429" x="342.8571428571429" y="0" opacity="0.15"></rect>
        <circle r="4.934210526315789" cx="342.8571428571429" cy="0" fill="#2bde80ff" stroke="none"></circle>
        <rect width="114.28571428571429" height="114.28571428571429" x="457.14285714285717" y="0" opacity="0.15"></rect>
        <circle r="4.934210526315789" cx="457.14285714285717" cy="0" fill="#2bde80ff" stroke="none"></circle>
        <rect width="114.28571428571429" height="114.28571428571429" x="571.4285714285714" y="0" opacity="0.15"></rect>
        <circle r="4.934210526315789" cx="571.4285714285714" cy="0" fill="#2bde80ff" stroke="none"></circle>
        <rect width="114.28571428571429" height="114.28571428571429" x="685.7142857142858" y="0" opacity="0.15"></rect>
        <circle r="4.934210526315789" cx="685.7142857142858" cy="0" fill="#2bde80ff" stroke="none"></circle>
        <rect width="114.28571428571429" height="114.28571428571429" x="800.0000000000001" y="0" opacity="0.15"></rect>
        <circle r="4.934210526315789" cx="800.0000000000001" cy="0" fill="#2bde80ff" stroke="none"></circle>
        <rect width="114.28571428571429" height="114.28571428571429" x="0" y="114.28571428571429" opacity="0.15"></rect>
        <circle r="4.934210526315789" cx="0" cy="114.28571428571429" fill="#2bde80ff" stroke="none"></circle>
        <rect width="114.28571428571429" height="114.28571428571429" x="114.28571428571429" y="114.28571428571429"
            opacity="0.15"></rect>
        <circle r="4.934210526315789" cx="114.28571428571429" cy="114.28571428571429" fill="#2bde80ff" stroke="none">
        </circle>
        <rect width="114.28571428571429" height="114.28571428571429" x="228.57142857142858" y="114.28571428571429"
            opacity="0.15"></rect>
        <circle r="4.934210526315789" cx="228.57142857142858" cy="114.28571428571429" fill="#2bde80ff" stroke="none">
        </circle>
        <rect width="114.28571428571429" height="114.28571428571429" x="342.8571428571429" y="114.28571428571429"
            opacity="0.15"></rect>
        <circle r="4.934210526315789" cx="342.8571428571429" cy="114.28571428571429" fill="#2bde80ff" stroke="none">
        </circle>
        <rect width="114.28571428571429" height="114.28571428571429" x="457.14285714285717" y="114.28571428571429"
            opacity="0.15"></rect>
        <circle r="4.934210526315789" cx="457.14285714285717" cy="114.28571428571429" fill="#2bde80ff" stroke="none">
        </circle>
        <rect width="114.28571428571429" height="114.28571428571429" x="571.4285714285714" y="114.28571428571429"
            opacity="0.15"></rect>
        <circle r="4.934210526315789" cx="571.4285714285714" cy="114.28571428571429" fill="#2bde80ff" stroke="none">
        </circle>
        <rect width="114.28571428571429" height="114.28571428571429" x="685.7142857142858" y="114.28571428571429"
            opacity="0.15"></rect>
        <circle r="4.934210526315789" cx="685.7142857142858" cy="114.28571428571429" fill="#2bde80ff" stroke="none">
        </circle>
        <rect width="114.28571428571429" height="114.28571428571429" x="800.0000000000001" y="114.28571428571429"
            opacity="0.15"></rect>
        <circle r="4.934210526315789" cx="800.0000000000001" cy="114.28571428571429" fill="#2bde80ff" stroke="none">
        </circle>
        <rect width="114.28571428571429" height="114.28571428571429" x="0" y="228.57142857142858" opacity="0.15"></rect>
        <circle r="4.934210526315789" cx="0" cy="228.57142857142858" fill="#2bde80ff" stroke="none"></circle>
        <rect width="114.28571428571429" height="114.28571428571429" x="114.28571428571429" y="228.57142857142858"
            opacity="0.15"></rect>
        <circle r="4.934210526315789" cx="114.28571428571429" cy="228.57142857142858" fill="#2bde80ff" stroke="none">
        </circle>
        <rect width="114.28571428571429" height="114.28571428571429" x="228.57142857142858" y="228.57142857142858"
            opacity="0.15"></rect>
        <circle r="4.934210526315789" cx="228.57142857142858" cy="228.57142857142858" fill="#2bde80ff" stroke="none">
        </circle>
        <rect width="114.28571428571429" height="114.28571428571429" x="342.8571428571429" y="228.57142857142858"
            opacity="0.15"></rect>
        <circle r="4.934210526315789" cx="342.8571428571429" cy="228.57142857142858" fill="#2bde80ff" stroke="none">
        </circle>
        <rect width="114.28571428571429" height="114.28571428571429" x="457.14285714285717" y="228.57142857142858"
            opacity="0.15"></rect>
        <circle r="4.934210526315789" cx="457.14285714285717" cy="228.57142857142858" fill="#2bde80ff" stroke="none">
        </circle>
        <rect width="114.28571428571429" height="114.28571428571429" x="571.4285714285714" y="228.57142857142858"
            opacity="0.15"></rect>
        <circle r="4.934210526315789" cx="571.4285714285714" cy="228.57142857142858" fill="#2bde80ff" stroke="none">
        </circle>
        <rect width="114.28571428571429" height="114.28571428571429" x="685.7142857142858" y="228.57142857142858"
            opacity="0.15"></rect>
        <circle r="4.934210526315789" cx="685.7142857142858" cy="228.57142857142858" fill="#2bde80ff" stroke="none">
        </circle>
        <rect width="114.28571428571429" height="114.28571428571429" x="800.0000000000001" y="228.57142857142858"
            opacity="0.15"></rect>
        <circle r="4.934210526315789" cx="800.0000000000001" cy="228.57142857142858" fill="#2bde80ff" stroke="none">
        </circle>
        <rect width="114.28571428571429" height="114.28571428571429" x="0" y="342.8571428571429" opacity="0.15"></rect>
        <circle r="4.934210526315789" cx="0" cy="342.8571428571429" fill="#2bde80ff" stroke="none"></circle>
        <rect width="114.28571428571429" height="114.28571428571429" x="114.28571428571429" y="342.8571428571429"
            opacity="0.15"></rect>
        <circle r="4.934210526315789" cx="114.28571428571429" cy="342.8571428571429" fill="#2bde80ff" stroke="none">
        </circle>
        <rect width="114.28571428571429" height="114.28571428571429" x="228.57142857142858" y="342.8571428571429"
            opacity="0.15"></rect>
        <circle r="4.934210526315789" cx="228.57142857142858" cy="342.8571428571429" fill="#2bde80ff" stroke="none">
        </circle>
        <rect width="114.28571428571429" height="114.28571428571429" x="342.8571428571429" y="342.8571428571429"
            opacity="0.15"></rect>
        <circle r="4.934210526315789" cx="342.8571428571429" cy="342.8571428571429" fill="#2bde80ff" stroke="none">
        </circle>
        <rect width="114.28571428571429" height="114.28571428571429" x="457.14285714285717" y="342.8571428571429"
            opacity="0.15"></rect>
        <circle r="4.934210526315789" cx="457.14285714285717" cy="342.8571428571429" fill="#2bde80ff" stroke="none">
        </circle>
        <rect width="114.28571428571429" height="114.28571428571429" x="571.4285714285714" y="342.8571428571429"
            opacity="0.15"></rect>
        <circle r="4.934210526315789" cx="571.4285714285714" cy="342.8571428571429" fill="#2bde80ff" stroke="none">
        </circle>
        <rect width="114.28571428571429" height="114.28571428571429" x="685.7142857142858" y="342.8571428571429"
            opacity="0.15"></rect>
        <circle r="4.934210526315789" cx="685.7142857142858" cy="342.8571428571429" fill="#2bde80ff" stroke="none">
        </circle>
        <rect width="114.28571428571429" height="114.28571428571429" x="800.0000000000001" y="342.8571428571429"
            opacity="0.15"></rect>
        <circle r="4.934210526315789" cx="800.0000000000001" cy="342.8571428571429" fill="#2bde80ff" stroke="none">
        </circle>
        <rect width="114.28571428571429" height="114.28571428571429" x="0" y="457.14285714285717" opacity="0.15"></rect>
        <circle r="4.934210526315789" cx="0" cy="457.14285714285717" fill="#2bde80ff" stroke="none"></circle>
        <rect width="114.28571428571429" height="114.28571428571429" x="114.28571428571429" y="457.14285714285717"
            opacity="0.15"></rect>
        <circle r="4.934210526315789" cx="114.28571428571429" cy="457.14285714285717" fill="#2bde80ff" stroke="none">
        </circle>
        <rect width="114.28571428571429" height="114.28571428571429" x="228.57142857142858" y="457.14285714285717"
            opacity="0.15"></rect>
        <circle r="4.934210526315789" cx="228.57142857142858" cy="457.14285714285717" fill="#2bde80ff" stroke="none">
        </circle>
        <rect width="114.28571428571429" height="114.28571428571429" x="342.8571428571429" y="457.14285714285717"
            opacity="0.15"></rect>
        <circle r="4.934210526315789" cx="342.8571428571429" cy="457.14285714285717" fill="#2bde80ff" stroke="none">
        </circle>
        <rect width="114.28571428571429" height="114.28571428571429" x="457.14285714285717" y="457.14285714285717"
            opacity="0.15"></rect>
        <circle r="4.934210526315789" cx="457.14285714285717" cy="457.14285714285717" fill="#2bde80ff" stroke="none">
        </circle>
        <rect width="114.28571428571429" height="114.28571428571429" x="571.4285714285714" y="457.14285714285717"
            opacity="0.15"></rect>
        <circle r="4.934210526315789" cx="571.4285714285714" cy="457.14285714285717" fill="#2bde80ff" stroke="none">
        </circle>
        <rect width="114.28571428571429" height="114.28571428571429" x="685.7142857142858" y="457.14285714285717"
            opacity="0.15"></rect>
        <circle r="4.934210526315789" cx="685.7142857142858" cy="457.14285714285717" fill="#2bde80ff" stroke="none">
        </circle>
        <rect width="114.28571428571429" height="114.28571428571429" x="800.0000000000001" y="457.14285714285717"
            opacity="0.15"></rect>
        <circle r="4.934210526315789" cx="800.0000000000001" cy="457.14285714285717" fill="#2bde80ff" stroke="none">
        </circle>
        <rect width="114.28571428571429" height="114.28571428571429" x="0" y="571.4285714285714" opacity="0.15"></rect>
        <circle r="4.934210526315789" cx="0" cy="571.4285714285714" fill="#2bde80ff" stroke="none"></circle>
        <rect width="114.28571428571429" height="114.28571428571429" x="114.28571428571429" y="571.4285714285714"
            opacity="0.15"></rect>
        <circle r="4.934210526315789" cx="114.28571428571429" cy="571.4285714285714" fill="#2bde80ff" stroke="none">
        </circle>
        <rect width="114.28571428571429" height="114.28571428571429" x="228.57142857142858" y="571.4285714285714"
            opacity="0.15"></rect>
        <circle r="4.934210526315789" cx="228.57142857142858" cy="571.4285714285714" fill="#2bde80ff" stroke="none">
        </circle>
        <rect width="114.28571428571429" height="114.28571428571429" x="342.8571428571429" y="571.4285714285714"
            opacity="0.15"></rect>
        <circle r="4.934210526315789" cx="342.8571428571429" cy="571.4285714285714" fill="#2bde80ff" stroke="none">
        </circle>
        <rect width="114.28571428571429" height="114.28571428571429" x="457.14285714285717" y="571.4285714285714"
            opacity="0.15"></rect>
        <circle r="4.934210526315789" cx="457.14285714285717" cy="571.4285714285714" fill="#2bde80ff" stroke="none">
        </circle>
        <rect width="114.28571428571429" height="114.28571428571429" x="571.4285714285714" y="571.4285714285714"
            opacity="0.15"></rect>
        <circle r="4.934210526315789" cx="571.4285714285714" cy="571.4285714285714" fill="#2bde80ff" stroke="none">
        </circle>
        <rect width="114.28571428571429" height="114.28571428571429" x="685.7142857142858" y="571.4285714285714"
            opacity="0.15"></rect>
        <circle r="4.934210526315789" cx="685.7142857142858" cy="571.4285714285714" fill="#2bde80ff" stroke="none">
        </circle>
        <rect width="114.28571428571429" height="114.28571428571429" x="800.0000000000001" y="571.4285714285714"
            opacity="0.15"></rect>
        <circle r="4.934210526315789" cx="800.0000000000001" cy="571.4285714285714" fill="#2bde80ff" stroke="none">
        </circle>
        <rect width="114.28571428571429" height="114.28571428571429" x="0" y="685.7142857142858" opacity="0.15"></rect>
        <circle r="4.934210526315789" cx="0" cy="685.7142857142858" fill="#2bde80ff" stroke="none"></circle>
        <rect width="114.28571428571429" height="114.28571428571429" x="114.28571428571429" y="685.7142857142858"
            opacity="0.15"></rect>
        <circle r="4.934210526315789" cx="114.28571428571429" cy="685.7142857142858" fill="#2bde80ff" stroke="none">
        </circle>
        <rect width="114.28571428571429" height="114.28571428571429" x="228.57142857142858" y="685.7142857142858"
            opacity="0.15"></rect>
        <circle r="4.934210526315789" cx="228.57142857142858" cy="685.7142857142858" fill="#2bde80ff" stroke="none">
        </circle>
        <rect width="114.28571428571429" height="114.28571428571429" x="342.8571428571429" y="685.7142857142858"
            opacity="0.15"></rect>
        <circle r="4.934210526315789" cx="342.8571428571429" cy="685.7142857142858" fill="#2bde80ff" stroke="none">
        </circle>
        <rect width="114.28571428571429" height="114.28571428571429" x="457.14285714285717" y="685.7142857142858"
            opacity="0.15"></rect>
        <circle r="4.934210526315789" cx="457.14285714285717" cy="685.7142857142858" fill="#2bde80ff" stroke="none">
        </circle>
        <rect width="114.28571428571429" height="114.28571428571429" x="571.4285714285714" y="685.7142857142858"
            opacity="0.15"></rect>
        <circle r="4.934210526315789" cx="571.4285714285714" cy="685.7142857142858" fill="#2bde80ff" stroke="none">
        </circle>
        <rect width="114.28571428571429" height="114.28571428571429" x="685.7142857142858" y="685.7142857142858"
            opacity="0.15"></rect>
        <circle r="4.934210526315789" cx="685.7142857142858" cy="685.7142857142858" fill="#2bde80ff" stroke="none">
        </circle>
        <rect width="114.28571428571429" height="114.28571428571429" x="800.0000000000001" y="685.7142857142858"
            opacity="0.15"></rect>
        <circle r="4.934210526315789" cx="800.0000000000001" cy="685.7142857142858" fill="#2bde80ff" stroke="none">
        </circle>
        <rect width="114.28571428571429" height="114.28571428571429" x="0" y="800.0000000000001" opacity="0.15"></rect>
        <circle r="4.934210526315789" cx="0" cy="800.0000000000001" fill="#2bde80ff" stroke="none"></circle>
        <rect width="114.28571428571429" height="114.28571428571429" x="114.28571428571429" y="800.0000000000001"
            opacity="0.15"></rect>
        <circle r="4.934210526315789" cx="114.28571428571429" cy="800.0000000000001" fill="#2bde80ff" stroke="none">
        </circle>
        <rect width="114.28571428571429" height="114.28571428571429" x="228.57142857142858" y="800.0000000000001"
            opacity="0.15"></rect>
        <circle r="4.934210526315789" cx="228.57142857142858" cy="800.0000000000001" fill="#2bde80ff" stroke="none">
        </circle>
        <rect width="114.28571428571429" height="114.28571428571429" x="342.8571428571429" y="800.0000000000001"
            opacity="0.15"></rect>
        <circle r="4.934210526315789" cx="342.8571428571429" cy="800.0000000000001" fill="#2bde80ff" stroke="none">
        </circle>
        <rect width="114.28571428571429" height="114.28571428571429" x="457.14285714285717" y="800.0000000000001"
            opacity="0.15"></rect>
        <circle r="4.934210526315789" cx="457.14285714285717" cy="800.0000000000001" fill="#2bde80ff" stroke="none">
        </circle>
        <rect width="114.28571428571429" height="114.28571428571429" x="571.4285714285714" y="800.0000000000001"
            opacity="0.15"></rect>
        <circle r="4.934210526315789" cx="571.4285714285714" cy="800.0000000000001" fill="#2bde80ff" stroke="none">
        </circle>
        <rect width="114.28571428571429" height="114.28571428571429" x="685.7142857142858" y="800.0000000000001"
            opacity="0.15"></rect>
        <circle r="4.934210526315789" cx="685.7142857142858" cy="800.0000000000001" fill="#2bde80ff" stroke="none">
        </circle>
        <rect width="114.28571428571429" height="114.28571428571429" x="800.0000000000001" y="800.0000000000001"
            opacity="0.15"></rect>
        <circle r="4.934210526315789" cx="800.0000000000001" cy="800.0000000000001" fill="#2bde80ff" stroke="none">
        </circle>
    </g>
</svg>